<svg width="18" height="17" viewBox="0 0 18 17" fill="none" xmlns="http://www.w3.org/2000/svg">
<path d="M13.4911 16.3086H11.9883C11.5898 16.3086 11.2076 16.1503 10.9258 15.8685C10.6439 15.5867 10.4856 15.2045 10.4856 14.8059V9.5464H7.48017V14.8059C7.48017 15.2045 7.32185 15.5867 7.04003 15.8685C6.75822 16.1503 6.376 16.3086 5.97745 16.3086H4.47473C3.87691 16.3086 3.30357 16.0712 2.88085 15.6484C2.45813 15.2257 2.22064 14.6524 2.22064 14.0546V8.79504C2.22064 8.59576 2.2998 8.40465 2.44071 8.26374C2.58162 8.12284 2.77273 8.04367 2.972 8.04367C3.17128 8.04367 3.36239 8.12284 3.5033 8.26374C3.6442 8.40465 3.72337 8.59576 3.72337 8.79504V14.0546C3.72337 14.2538 3.80253 14.445 3.94343 14.5859C4.08434 14.7268 4.27545 14.8059 4.47473 14.8059H5.97745V9.5464C5.97745 9.14785 6.13577 8.76563 6.41759 8.48381C6.6994 8.202 7.08162 8.04367 7.48017 8.04367H10.4856C10.8842 8.04367 11.2664 8.202 11.5482 8.48381C11.83 8.76563 11.9883 9.14785 11.9883 9.5464V14.8059H13.4911C13.6903 14.8059 13.8814 14.7268 14.0224 14.5859C14.1633 14.445 14.2424 14.2538 14.2424 14.0546V8.79504C14.2424 8.59576 14.3216 8.40465 14.4625 8.26374C14.6034 8.12284 14.7945 8.04367 14.9938 8.04367C15.1931 8.04367 15.3842 8.12284 15.5251 8.26374C15.666 8.40465 15.7451 8.59576 15.7451 8.79504V14.0546C15.7451 14.6524 15.5077 15.2257 15.0849 15.6484C14.6622 16.0712 14.0889 16.3086 13.4911 16.3086ZM17.879 6.94669C17.987 6.78013 18.0248 6.57759 17.9839 6.3833C17.9431 6.18902 17.827 6.01879 17.6611 5.90981L10.6209 1.34153C10.1341 1.02619 9.56659 0.858398 8.98665 0.858398C8.40671 0.858398 7.83915 1.02619 7.35244 1.34153L0.312185 5.90981C0.156082 6.02226 0.0490635 6.19031 0.0131841 6.37933C-0.0226953 6.56834 0.0152982 6.76392 0.119335 6.92576C0.223371 7.08759 0.385524 7.20335 0.572376 7.24918C0.759228 7.29501 0.956542 7.26742 1.12365 7.17209L8.16391 2.60382C8.40767 2.44537 8.69216 2.36103 8.98289 2.36103C9.27363 2.36103 9.55812 2.44537 9.80188 2.60382L16.8421 7.17209C17.0087 7.28013 17.2112 7.31785 17.4055 7.27702C17.5998 7.23619 17.77 7.12013 17.879 6.9542V6.94669Z" fill="white"/>
</svg>
