<svg width="16" height="19" viewBox="0 0 16 19" fill="none" xmlns="http://www.w3.org/2000/svg">
<path d="M11.4375 18.3H2.2875C1.68082 18.3 1.09898 18.059 0.669993 17.63C0.241004 17.201 0 16.6192 0 16.0125L0 2.2875C0 1.68082 0.241004 1.09898 0.669993 0.669993C1.09898 0.241004 1.68082 0 2.2875 0L11.4375 0C12.0442 0 12.626 0.241004 13.055 0.669993C13.484 1.09898 13.725 1.68082 13.725 2.2875V3.05C13.725 3.25222 13.6447 3.44617 13.5017 3.58917C13.3587 3.73216 13.1647 3.8125 12.9625 3.8125C12.7603 3.8125 12.5663 3.73216 12.4233 3.58917C12.2803 3.44617 12.2 3.25222 12.2 3.05V2.2875C12.2 2.08527 12.1197 1.89133 11.9767 1.74833C11.8337 1.60533 11.6397 1.525 11.4375 1.525H2.2875C2.08527 1.525 1.89133 1.60533 1.74833 1.74833C1.60533 1.89133 1.525 2.08527 1.525 2.2875V16.0125C1.525 16.2147 1.60533 16.4087 1.74833 16.5517C1.89133 16.6947 2.08527 16.775 2.2875 16.775H11.4375C11.6397 16.775 11.8337 16.6947 11.9767 16.5517C12.1197 16.4087 12.2 16.2147 12.2 16.0125V15.25C12.2 15.0478 12.2803 14.8538 12.4233 14.7108C12.5663 14.5678 12.7603 14.4875 12.9625 14.4875C13.1647 14.4875 13.3587 14.5678 13.5017 14.7108C13.6447 14.8538 13.725 15.0478 13.725 15.25V16.0125C13.725 16.6192 13.484 17.201 13.055 17.63C12.626 18.059 12.0442 18.3 11.4375 18.3ZM15.9286 9.49312C15.9854 9.37125 16.009 9.23654 15.9969 9.10263C15.9849 8.96872 15.9376 8.84038 15.86 8.73062L13.5725 5.68062C13.4511 5.51884 13.2705 5.41188 13.0703 5.38328C12.8701 5.35468 12.6668 5.40678 12.505 5.52812C12.3432 5.64946 12.2363 5.83009 12.2077 6.03029C12.1791 6.23048 12.2312 6.43384 12.3525 6.59562L13.725 8.38749H6.86249C6.66027 8.38749 6.46632 8.46783 6.32333 8.61082C6.18033 8.75382 6.09999 8.94776 6.09999 9.14999C6.09999 9.35222 6.18033 9.54616 6.32333 9.68916C6.46632 9.83216 6.66027 9.91249 6.86249 9.91249H15.25C15.3908 9.91206 15.5287 9.87265 15.6485 9.79863C15.7683 9.72461 15.8652 9.61886 15.9286 9.49312ZM13.5725 12.6575L14.1444 11.895C14.2299 11.8212 14.2979 11.7293 14.3435 11.6259C14.3892 11.5226 14.4113 11.4104 14.4083 11.2975C14.4053 11.1846 14.3772 11.0737 14.3261 10.973C14.275 10.8722 14.2022 10.7841 14.1128 10.7149C14.0235 10.6458 13.9199 10.5973 13.8096 10.5731C13.6993 10.5489 13.5849 10.5495 13.4748 10.5748C13.3648 10.6002 13.2617 10.6497 13.1731 10.7198C13.0845 10.7898 13.0125 10.8787 12.9625 10.98L12.3906 11.7425C12.2693 11.9043 12.2172 12.1076 12.2458 12.3078C12.2744 12.508 12.3813 12.6887 12.5431 12.81C12.7049 12.9313 12.9083 12.9834 13.1084 12.9548C13.3086 12.9262 13.4893 12.8193 13.6106 12.6575H13.5725ZM13.2522 12.9015C13.3446 12.8627 13.4297 12.8086 13.5039 12.7414C13.5366 12.7051 13.5672 12.6669 13.5954 12.627C13.6242 12.5845 13.6473 12.5383 13.664 12.4897C13.6912 12.4474 13.7117 12.4011 13.725 12.3525C13.7287 12.3017 13.7287 12.2508 13.725 12.2C13.7222 11.9981 13.6432 11.8047 13.5039 11.6586C13.4297 11.5914 13.3446 11.5372 13.2522 11.4985C13.1142 11.4345 12.9602 11.4132 12.81 11.4375C12.7622 11.4457 12.7159 11.4611 12.6727 11.4832C12.6259 11.4985 12.582 11.5217 12.5431 11.5519L12.4211 11.6434C12.2782 11.7933 12.1989 11.9928 12.2 12.2C12.1994 12.3003 12.2186 12.3998 12.2566 12.4927C12.2945 12.5856 12.3504 12.6701 12.4211 12.7414L12.5431 12.8329C12.582 12.863 12.6259 12.8863 12.6727 12.9015L12.81 12.9472H12.9625C13.0611 12.9509 13.1595 12.9353 13.2522 12.9015Z" fill="white"/>
</svg>
