<svg width="16" height="14" viewBox="0 0 16 14" fill="none" xmlns="http://www.w3.org/2000/svg">
<path d="M3.33333 14C3.20092 14.0008 3.07127 13.9621 2.96092 13.8889C2.85058 13.8157 2.76453 13.7113 2.71375 13.589C2.66298 13.4667 2.64977 13.332 2.67581 13.2022C2.70186 13.0724 2.76598 12.9532 2.86 12.86L5.13333 10.5867C5.31967 10.4001 5.54105 10.2522 5.78475 10.1515C6.02845 10.0509 6.28965 9.99935 6.55333 10H14C14.1768 10 14.3464 9.92976 14.4714 9.80474C14.5964 9.67971 14.6667 9.51014 14.6667 9.33333V2C14.6667 1.82319 14.5964 1.65362 14.4714 1.5286C14.3464 1.40357 14.1768 1.33333 14 1.33333H2C1.82319 1.33333 1.65362 1.40357 1.5286 1.5286C1.40357 1.65362 1.33333 1.82319 1.33333 2V9.33333C1.33333 9.51014 1.40357 9.67971 1.5286 9.80474C1.65362 9.92976 1.82319 10 2 10H2.66667C2.84348 10 3.01305 10.0702 3.13807 10.1953C3.2631 10.3203 3.33333 10.4899 3.33333 10.6667C3.33333 10.8435 3.2631 11.013 3.13807 11.1381C3.01305 11.2631 2.84348 11.3333 2.66667 11.3333H2C1.46957 11.3333 0.960859 11.1226 0.585786 10.7475C0.210714 10.3725 0 9.86377 0 9.33333L0 2C0 1.46957 0.210714 0.960859 0.585786 0.585786C0.960859 0.210714 1.46957 0 2 0L14 0C14.5304 0 15.0391 0.210714 15.4142 0.585786C15.7893 0.960859 16 1.46957 16 2V9.33333C16 9.86377 15.7893 10.3725 15.4142 10.7475C15.0391 11.1226 14.5304 11.3333 14 11.3333H6.55333C6.4656 11.3328 6.37862 11.3496 6.2974 11.3828C6.21617 11.416 6.14229 11.4649 6.08 11.5267L3.80667 13.8067C3.74437 13.8685 3.6705 13.9173 3.58927 13.9505C3.50805 13.9837 3.42107 14.0005 3.33333 14Z" fill="white"/>
</svg>
