<svg width="18" height="17" viewBox="0 0 18 17" fill="none" xmlns="http://www.w3.org/2000/svg">
<path d="M6 16.5708H2.25C1.65326 16.5708 1.08097 16.3337 0.65901 15.9118C0.237053 15.4898 0 14.9175 0 14.3208L0 11.9208C0.0161192 11.4827 0.156554 11.0583 0.404901 10.6971C0.653248 10.3358 0.999253 10.0527 1.4025 9.88079C3.33847 9.11568 5.44515 8.88765 7.5 9.22079C7.59849 9.23655 7.69291 9.27155 7.77788 9.3238C7.86284 9.37605 7.93668 9.44453 7.99518 9.52531C8.05368 9.6061 8.0957 9.69762 8.11883 9.79464C8.14196 9.89167 8.14576 9.9923 8.13 10.0908C8.11424 10.1893 8.07924 10.2837 8.02699 10.3687C7.97474 10.4536 7.90626 10.5275 7.82548 10.586C7.74469 10.6445 7.65317 10.6865 7.55615 10.7096C7.45912 10.7328 7.35849 10.7365 7.26 10.7208C5.48979 10.4429 3.67748 10.6422 2.01 11.2983C1.88765 11.3604 1.78254 11.4518 1.70403 11.5643C1.62552 11.6768 1.57605 11.807 1.56 11.9433V14.3433C1.56 14.5422 1.63902 14.733 1.77967 14.8736C1.92032 15.0143 2.11109 15.0933 2.31 15.0933H6C6.19891 15.0933 6.38968 15.1723 6.53033 15.313C6.67098 15.4536 6.75 15.6444 6.75 15.8433C6.75 16.0422 6.67098 16.233 6.53033 16.3736C6.38968 16.5143 6.19891 16.5933 6 16.5933V16.5708ZM9 4.24829C9 3.35319 8.64442 2.49474 8.01149 1.86181C7.37855 1.22887 6.52011 0.873291 5.625 0.873291C4.72989 0.873291 3.87145 1.22887 3.23851 1.86181C2.60558 2.49474 2.25 3.35319 2.25 4.24829C2.25 5.1434 2.60558 6.00184 3.23851 6.63478C3.87145 7.26771 4.72989 7.62329 5.625 7.62329C6.52011 7.62329 7.37855 7.26771 8.01149 6.63478C8.64442 6.00184 9 5.1434 9 4.24829ZM7.5 4.24829C7.5 4.74557 7.30246 5.22249 6.95083 5.57412C6.59919 5.92575 6.12228 6.12329 5.625 6.12329C5.12772 6.12329 4.65081 5.92575 4.29917 5.57412C3.94754 5.22249 3.75 4.74557 3.75 4.24829C3.75 3.75101 3.94754 3.2741 4.29917 2.92247C4.65081 2.57083 5.12772 2.37329 5.625 2.37329C6.12228 2.37329 6.59919 2.57083 6.95083 2.92247C7.30246 3.2741 7.5 3.75101 7.5 4.24829ZM18 14.8308V12.3108C17.9868 11.9211 17.8627 11.5433 17.6421 11.2218C17.4216 10.9003 17.1138 10.6484 16.755 10.4958C14.4691 9.58915 11.9234 9.58915 9.6375 10.4958C9.2787 10.6484 8.97093 10.9003 8.75039 11.2218C8.52983 11.5433 8.40567 11.9211 8.3925 12.3108V15.8208C8.3925 16.0197 8.47152 16.2105 8.61217 16.3511C8.75282 16.4918 8.94359 16.5708 9.1425 16.5708C9.34141 16.5708 9.53218 16.4918 9.67283 16.3511C9.81348 16.2105 9.8925 16.0197 9.8925 15.8208V12.3108C9.90623 12.2242 9.93977 12.1419 9.9905 12.0703C10.0412 11.9988 10.1078 11.9399 10.185 11.8983C12.1126 11.1371 14.2574 11.1371 16.185 11.8983C16.2622 11.9399 16.3288 11.9988 16.3795 12.0703C16.4302 12.1419 16.4638 12.2242 16.4775 12.3108V14.8308C16.4765 14.8643 16.469 14.8973 16.4552 14.9278C16.4415 14.9584 16.4219 14.986 16.3975 15.0089C16.3732 15.0319 16.3445 15.0499 16.3132 15.0618C16.2818 15.0737 16.2485 15.0793 16.215 15.0783H12C11.8011 15.0783 11.6103 15.1573 11.4697 15.298C11.329 15.4386 11.25 15.6294 11.25 15.8283C11.25 16.0272 11.329 16.218 11.4697 16.3586C11.6103 16.4993 11.8011 16.5783 12 16.5783H16.2375C16.468 16.5793 16.6964 16.5349 16.9097 16.4476C17.123 16.3603 17.317 16.2318 17.4807 16.0696C17.6443 15.9073 17.7744 15.7144 17.8635 15.5018C17.9526 15.2893 17.999 15.0613 18 14.8308ZM15.75 5.73329C15.7574 5.21258 15.6098 4.70143 15.326 4.26484C15.0421 3.82826 14.6348 3.48598 14.1558 3.28154C13.6768 3.07709 13.1479 3.01973 12.6363 3.11674C12.1246 3.21375 11.6534 3.46075 11.2825 3.82633C10.9116 4.19191 10.6579 4.65953 10.5535 5.16973C10.4492 5.67993 10.4989 6.20964 10.6964 6.69148C10.894 7.17333 11.2304 7.58553 11.6628 7.87566C12.0953 8.16579 12.6042 8.32074 13.125 8.32079C13.8159 8.32479 14.4803 8.05465 14.9723 7.56961C15.4644 7.08457 15.7441 6.4242 15.75 5.73329ZM14.25 5.73329C14.262 5.95796 14.2064 6.18107 14.0903 6.3738C13.9742 6.56652 13.8029 6.72001 13.5987 6.81443C13.3945 6.90885 13.1667 6.93987 12.9446 6.90347C12.7226 6.86708 12.5166 6.76495 12.3532 6.61027C12.1898 6.4556 12.0765 6.25548 12.028 6.03578C11.9795 5.81607 11.998 5.58687 12.0811 5.37779C12.1642 5.1687 12.3081 4.98934 12.4942 4.86286C12.6803 4.73639 12.9 4.66861 13.125 4.66829C13.4143 4.66414 13.6939 4.77315 13.904 4.97209C14.1141 5.17102 14.2383 5.44416 14.25 5.73329Z" fill="white"/>
</svg>
