<svg width="15" height="17" viewBox="0 0 15 17" fill="none" xmlns="http://www.w3.org/2000/svg">
<path d="M14.198 17.0005C14.0841 17.0004 13.9714 16.9752 13.8677 16.9266C13.7639 16.8781 13.6713 16.8073 13.5961 16.719L10.4982 13.1004C9.55662 13.7123 8.48468 14.0783 7.37517 14.1665C6.26566 14.2547 5.15204 14.0626 4.13073 13.6066C3.10943 13.1507 2.21124 12.4448 1.51394 11.55C0.816647 10.6553 0.341272 9.59859 0.128984 8.47153C-0.0705058 7.43032 -0.0410912 6.3562 0.215062 5.32827C0.471216 4.30034 0.947584 3.34478 1.60909 2.53197C2.27059 1.71915 3.10038 1.06978 4.03734 0.631675C4.97431 0.19357 5.99459 -0.0221115 7.02305 0.00051419C8.7251 0.0514517 10.3493 0.747503 11.5855 1.95572C12.8217 3.16394 13.5831 4.79966 13.7245 6.55044C13.8027 7.58274 13.6602 8.62016 13.3072 9.58941C13.2316 9.79475 13.0801 9.96071 12.8859 10.0508C12.6917 10.1408 12.4709 10.1476 12.2718 10.0697C12.0728 9.99172 11.912 9.83538 11.8247 9.63505C11.7374 9.43473 11.7308 9.20683 11.8064 9.00149C12.1011 8.18857 12.203 7.31471 12.1036 6.45286C12.0043 5.59101 11.7065 4.7662 11.2352 4.04731C10.7639 3.32841 10.1327 2.73629 9.39433 2.3204C8.65599 1.90451 7.83192 1.67692 6.99094 1.65663C6.20399 1.6327 5.42208 1.794 4.70455 2.12829C3.98701 2.46259 3.35268 2.96109 2.84969 3.586C2.04576 4.57769 1.61039 5.83236 1.62162 7.12516C1.63285 8.41795 2.08994 9.66437 2.91097 10.641C3.73201 11.6177 4.86331 12.2608 6.10214 12.455C7.34098 12.6492 8.60636 12.3819 9.67152 11.701C9.99062 11.5016 10.3671 11.4231 10.7361 11.479C11.1052 11.5349 11.4439 11.7217 11.694 12.0073L14.7919 15.6259C14.8937 15.7455 14.96 15.8928 14.9827 16.0502C15.0055 16.2076 14.9839 16.3684 14.9203 16.5134C14.8568 16.6584 14.7542 16.7815 14.6247 16.8679C14.4951 16.9543 14.3442 17.0003 14.19 17.0005H14.198Z" fill="white"/>
</svg>
